<svg width="207" height="109" viewBox="0 0 207 109" fill="none" xmlns="http://www.w3.org/2000/svg">
<rect x="0.899414" y="0.706848" width="205.481" height="108.129" rx="11.7" fill="#0177FB"/>
<mask id="mask0_1503_24" style="mask-type:alpha" maskUnits="userSpaceOnUse" x="0" y="0" width="207" height="109">
<rect x="0.899414" y="0.707184" width="205.481" height="108.129" rx="11.7" fill="#0177FB"/>
</mask>
<g mask="url(#mask0_1503_24)">
<path d="M54.4758 -14.4025C62.446 -4.33636 66.4902 8.28136 65.8564 21.1052C65.2227 33.929 59.9542 46.0865 51.0302 55.3177C42.1063 64.5489 30.1341 70.2259 17.3391 71.2932C4.54405 72.3606 -8.2033 68.7458 -18.5334 61.1208L-5.66423 43.6861C0.4412 48.1928 7.97531 50.3293 15.5376 49.6984C23.0999 49.0676 30.1759 45.7123 35.4502 40.2563C40.7245 34.8004 43.8384 27.6149 44.213 20.0356C44.5875 12.4563 42.1973 4.99878 37.4866 -0.950642L54.4758 -14.4025Z" fill="url(#paint0_linear_1503_24)"/>
<path d="M159.141 38.2232C177.678 30.0326 200.992 34.092 210.332 37.1455L209.434 58.8792C204.285 57.5021 191.939 54.748 183.749 54.748C173.511 54.748 158.603 60.855 148.365 68.9377C138.126 77.0205 126.092 90.1325 120.165 95.8802C115.423 100.478 107.412 107.016 103.999 109.711H46.522C88.9115 107.016 123.757 61.2142 128.068 57.8015C132.379 54.3888 135.971 48.4613 159.141 38.2232Z" fill="url(#paint1_linear_1503_24)"/>
</g>
<defs>
<linearGradient id="paint0_linear_1503_24" x1="67.3853" y1="-51.4604" x2="-18.5046" y2="93.6789" gradientUnits="userSpaceOnUse">
<stop stop-color="#0177FB" stop-opacity="0"/>
<stop offset="0.442708" stop-color="#1D88FF"/>
<stop offset="1" stop-color="#0177FB" stop-opacity="0"/>
</linearGradient>
<linearGradient id="paint1_linear_1503_24" x1="212.596" y1="21.1816" x2="176.439" y2="152.333" gradientUnits="userSpaceOnUse">
<stop stop-color="#0177FB" stop-opacity="0"/>
<stop offset="0.442708" stop-color="#1D88FF"/>
<stop offset="1" stop-color="#0177FB" stop-opacity="0"/>
</linearGradient>
</defs>
</svg>
