<svg width="15" height="15" viewBox="0 0 15 15" fill="none" xmlns="http://www.w3.org/2000/svg">
<path d="M12.6056 7.62463H7.48682V2.50588C7.48682 2.06713 7.19432 1.77463 6.75557 1.77463C3.09932 1.77463 0.174316 4.69963 0.174316 8.35588C0.174316 12.0121 3.09932 14.9371 6.75557 14.9371C10.4118 14.9371 13.3368 12.0121 13.3368 8.35588C13.3368 7.91713 13.0443 7.62463 12.6056 7.62463ZM7.48682 13.4015C4.70807 13.8403 2.07557 11.8659 1.70994 9.08713C1.27119 6.30838 3.24557 3.67588 6.02432 3.31026V8.35588C6.02432 8.79463 6.31682 9.08713 6.75557 9.08713H11.8012C11.5087 11.354 9.75369 13.109 7.48682 13.4015ZM9.68057 0.312134C9.24182 0.312134 8.94932 0.604634 8.94932 1.04338V5.43088C8.94932 5.86963 9.24182 6.16213 9.68057 6.16213H14.0681C14.5068 6.16213 14.7993 5.86963 14.7993 5.43088C14.7993 2.57901 12.5324 0.312134 9.68057 0.312134ZM10.4118 4.69963V1.84776C11.8743 2.14026 12.9712 3.23713 13.2637 4.69963H10.4118Z" fill="#A4B4CB"/>
</svg>
