<svg width="15" height="15" viewBox="0 0 15 15" fill="none" xmlns="http://www.w3.org/2000/svg">
<path d="M7.48682 3.18702C7.29288 3.18702 7.10688 3.26407 6.96974 3.4012C6.83261 3.53834 6.75557 3.72433 6.75557 3.91827V11.2308C6.75557 11.4247 6.83261 11.6107 6.96974 11.7478C7.10688 11.885 7.29288 11.962 7.48682 11.962C7.68076 11.962 7.86675 11.885 8.00389 11.7478C8.14102 11.6107 8.21807 11.4247 8.21807 11.2308V3.91827C8.21807 3.72433 8.14102 3.53834 8.00389 3.4012C7.86675 3.26407 7.68076 3.18702 7.48682 3.18702ZM3.83057 7.57452C3.63663 7.57452 3.45063 7.65157 3.31349 7.7887C3.17636 7.92584 3.09932 8.11183 3.09932 8.30577V11.2308C3.09932 11.4247 3.17636 11.6107 3.31349 11.7478C3.45063 11.885 3.63663 11.962 3.83057 11.962C4.02451 11.962 4.2105 11.885 4.34764 11.7478C4.48477 11.6107 4.56182 11.4247 4.56182 11.2308V8.30577C4.56182 8.11183 4.48477 7.92584 4.34764 7.7887C4.2105 7.65157 4.02451 7.57452 3.83057 7.57452ZM11.1431 6.11202C10.9491 6.11202 10.7631 6.18907 10.626 6.3262C10.4889 6.46334 10.4118 6.64933 10.4118 6.84327V11.2308C10.4118 11.4247 10.4889 11.6107 10.626 11.7478C10.7631 11.885 10.9491 11.962 11.1431 11.962C11.337 11.962 11.523 11.885 11.6601 11.7478C11.7973 11.6107 11.8743 11.4247 11.8743 11.2308V6.84327C11.8743 6.64933 11.7973 6.46334 11.6601 6.3262C11.523 6.18907 11.337 6.11202 11.1431 6.11202ZM12.6056 0.262024H2.36807C1.78625 0.262024 1.22826 0.493151 0.816851 0.904558C0.405443 1.31597 0.174316 1.87396 0.174316 2.45577V12.6933C0.174316 13.2751 0.405443 13.8331 0.816851 14.2445C1.22826 14.6559 1.78625 14.887 2.36807 14.887H12.6056C13.1874 14.887 13.7454 14.6559 14.1568 14.2445C14.5682 13.8331 14.7993 13.2751 14.7993 12.6933V2.45577C14.7993 1.87396 14.5682 1.31597 14.1568 0.904558C13.7454 0.493151 13.1874 0.262024 12.6056 0.262024ZM13.3368 12.6933C13.3368 12.8872 13.2598 13.0732 13.1226 13.2103C12.9855 13.3475 12.7995 13.4245 12.6056 13.4245H2.36807C2.17413 13.4245 1.98813 13.3475 1.85099 13.2103C1.71386 13.0732 1.63682 12.8872 1.63682 12.6933V2.45577C1.63682 2.26183 1.71386 2.07584 1.85099 1.9387C1.98813 1.80157 2.17413 1.72452 2.36807 1.72452H12.6056C12.7995 1.72452 12.9855 1.80157 13.1226 1.9387C13.2598 2.07584 13.3368 2.26183 13.3368 2.45577V12.6933Z" fill="#A4B4CB"/>
</svg>
