<svg width="15" height="15" viewBox="0 0 15 15" fill="none" xmlns="http://www.w3.org/2000/svg">
<path d="M7.48731 3.90576C7.29337 3.90576 7.10737 3.9828 6.97024 4.11994C6.8331 4.25708 6.75606 4.44307 6.75606 4.63701V7.56201C6.75606 7.75595 6.8331 7.94195 6.97024 8.07908C7.10737 8.21622 7.29337 8.29326 7.48731 8.29326C7.68125 8.29326 7.86724 8.21622 8.00438 8.07908C8.14152 7.94195 8.21856 7.75595 8.21856 7.56201V4.63701C8.21856 4.44307 8.14152 4.25708 8.00438 4.11994C7.86724 3.9828 7.68125 3.90576 7.48731 3.90576ZM8.16006 10.2091C8.14405 10.1625 8.12192 10.1183 8.09425 10.0775L8.0065 9.96782C7.90366 9.86636 7.77308 9.79762 7.63123 9.77029C7.48937 9.74296 7.3426 9.75826 7.20943 9.81426C7.12082 9.85129 7.0392 9.90323 6.96812 9.96782C6.90035 10.0362 6.84673 10.1172 6.81034 10.2063C6.77395 10.2954 6.7555 10.3908 6.75606 10.487C6.75721 10.5826 6.77709 10.677 6.81456 10.7649C6.8474 10.8556 6.8998 10.938 6.96804 11.0063C7.03628 11.0745 7.11869 11.1269 7.20943 11.1598C7.29696 11.1984 7.39161 11.2184 7.48731 11.2184C7.58301 11.2184 7.67765 11.1984 7.76518 11.1598C7.85593 11.1269 7.93834 11.0745 8.00658 11.0063C8.07482 10.938 8.12722 10.8556 8.16006 10.7649C8.19753 10.677 8.2174 10.5826 8.21856 10.487C8.22215 10.4383 8.22215 10.3894 8.21856 10.3408C8.20597 10.2941 8.18623 10.2497 8.16006 10.2091ZM7.48731 0.249512C6.04103 0.249512 4.62723 0.678382 3.4247 1.48189C2.22217 2.2854 1.2849 3.42745 0.731439 4.76364C0.177973 6.09982 0.0331612 7.57012 0.315316 8.98861C0.59747 10.4071 1.29392 11.7101 2.31659 12.7327C3.33926 13.7554 4.64222 14.4519 6.06071 14.734C7.4792 15.0162 8.9495 14.8713 10.2857 14.3179C11.6219 13.7644 12.7639 12.8272 13.5674 11.6246C14.3709 10.4221 14.7998 9.00829 14.7998 7.56201C14.7998 6.60172 14.6107 5.65083 14.2432 4.76364C13.8757 3.87645 13.3371 3.07032 12.658 2.39129C11.979 1.71227 11.1729 1.17363 10.2857 0.806143C9.39849 0.438655 8.4476 0.249512 7.48731 0.249512ZM7.48731 13.412C6.33029 13.412 5.19925 13.0689 4.23722 12.4261C3.27519 11.7833 2.52539 10.8697 2.08261 9.80071C1.63984 8.73176 1.52399 7.55552 1.74971 6.42073C1.97544 5.28594 2.5326 4.24357 3.35073 3.42544C4.16887 2.6073 5.21124 2.05014 6.34603 1.82442C7.48082 1.59869 8.65706 1.71454 9.72601 2.15732C10.795 2.60009 11.7086 3.3499 12.3514 4.31193C12.9942 5.27395 13.3373 6.40499 13.3373 7.56201C13.3373 9.11353 12.721 10.6015 11.6239 11.6986C10.5268 12.7957 9.03882 13.412 7.48731 13.412Z" fill="#A4B4CB"/>
</svg>
