<svg width="14" height="16" viewBox="0 0 14 16" fill="none" xmlns="http://www.w3.org/2000/svg">
<path d="M12.6056 4.91754L8.21814 1.07117C7.81593 0.711426 7.29525 0.512543 6.75564 0.512543C6.21602 0.512543 5.69534 0.711426 5.29314 1.07117L0.905636 4.91754C0.673368 5.12527 0.488019 5.3801 0.361931 5.66506C0.235843 5.95002 0.171909 6.25857 0.174386 6.57017V12.9613C0.174386 13.5431 0.405512 14.1011 0.81692 14.5125C1.22833 14.9239 1.78632 15.155 2.36814 15.155H11.1431C11.725 15.155 12.2829 14.9239 12.6944 14.5125C13.1058 14.1011 13.3369 13.5431 13.3369 12.9613V6.56285C13.3383 6.25249 13.2739 5.94534 13.1478 5.66172C13.0218 5.3781 12.837 5.12445 12.6056 4.91754V4.91754ZM8.21814 13.6925H5.29314V10.0363C5.29314 9.84235 5.37018 9.65636 5.50731 9.51922C5.64445 9.38208 5.83045 9.30504 6.02439 9.30504H7.48689C7.68082 9.30504 7.86682 9.38208 8.00396 9.51922C8.14109 9.65636 8.21814 9.84235 8.21814 10.0363V13.6925ZM11.8744 12.9613C11.8744 13.1552 11.7973 13.3412 11.6602 13.4784C11.5231 13.6155 11.3371 13.6925 11.1431 13.6925H9.68064V10.0363C9.68064 9.45447 9.44951 8.89648 9.0381 8.48508C8.62669 8.07367 8.0687 7.84254 7.48689 7.84254H6.02439C5.44257 7.84254 4.88458 8.07367 4.47317 8.48508C4.06176 8.89648 3.83064 9.45447 3.83064 10.0363V13.6925H2.36814C2.1742 13.6925 1.9882 13.6155 1.85106 13.4784C1.71393 13.3412 1.63689 13.1552 1.63689 12.9613V6.56285C1.63702 6.45903 1.65926 6.35642 1.70213 6.26186C1.74499 6.16729 1.80751 6.08294 1.88551 6.01442L6.27301 2.17536C6.40646 2.05812 6.57801 1.99347 6.75564 1.99347C6.93326 1.99347 7.10482 2.05812 7.23826 2.17536L11.6258 6.01442C11.7038 6.08294 11.7663 6.16729 11.8091 6.26186C11.852 6.35642 11.8743 6.45903 11.8744 6.56285V12.9613Z" fill="black"/>
</svg>
