<svg width="16" height="10" viewBox="0 0 16 10" fill="none" xmlns="http://www.w3.org/2000/svg">
<path d="M5.95752 1.17255H9.94326V8.33423H5.95752V1.17255Z" fill="#FF5F00"/>
<path d="M6.21073 4.75362C6.21073 3.29851 6.89399 2.00789 7.9442 1.17278C7.17236 0.565429 6.19807 0.198486 5.13521 0.198486C2.61723 0.198486 0.580078 2.23564 0.580078 4.75362C0.580078 7.27159 2.61723 9.30875 5.13521 9.30875C6.19807 9.30875 7.17236 8.94181 7.9442 8.33446C6.89399 7.512 6.21073 6.20873 6.21073 4.75362Z" fill="#EB001B"/>
<path d="M15.3217 4.75362C15.3217 7.27159 13.2845 9.30875 10.7665 9.30875C9.70366 9.30875 8.72936 8.94181 7.95752 8.33446C9.02038 7.49935 9.691 6.20873 9.691 4.75362C9.691 3.29851 9.00773 2.00789 7.95752 1.17278C8.72936 0.565429 9.70366 0.198486 10.7665 0.198486C13.2845 0.198486 15.3217 2.2483 15.3217 4.75362Z" fill="#F79E1B"/>
</svg>
