<svg width="15" height="16" viewBox="0 0 15 16" fill="none" xmlns="http://www.w3.org/2000/svg">
<path d="M4.58243 6.99379C4.4378 6.99379 4.29642 7.03667 4.17617 7.11702C4.05591 7.19738 3.96219 7.31158 3.90684 7.4452C3.85149 7.57882 3.83701 7.72585 3.86523 7.8677C3.89344 8.00955 3.96309 8.13984 4.06536 8.24211C4.16762 8.34438 4.29792 8.41402 4.43977 8.44224C4.58162 8.47045 4.72865 8.45597 4.86227 8.40062C4.99588 8.34528 5.11009 8.25155 5.19044 8.1313C5.27079 8.01104 5.31368 7.86966 5.31368 7.72504C5.31368 7.5311 5.23664 7.3451 5.0995 7.20797C4.96236 7.07083 4.77637 6.99379 4.58243 6.99379ZM7.50743 6.99379C7.3628 6.99379 7.22142 7.03667 7.10117 7.11702C6.98091 7.19738 6.88719 7.31158 6.83184 7.4452C6.77649 7.57882 6.76201 7.72585 6.79023 7.8677C6.81844 8.00955 6.88809 8.13984 6.99036 8.24211C7.09262 8.34438 7.22292 8.41402 7.36477 8.44224C7.50662 8.47045 7.65365 8.45597 7.78727 8.40062C7.92088 8.34528 8.03509 8.25155 8.11544 8.1313C8.19579 8.01104 8.23868 7.86966 8.23868 7.72504C8.23868 7.5311 8.16164 7.3451 8.0245 7.20797C7.88736 7.07083 7.70137 6.99379 7.50743 6.99379ZM10.4324 6.99379C10.2878 6.99379 10.1464 7.03667 10.0262 7.11702C9.90591 7.19738 9.81219 7.31158 9.75684 7.4452C9.70149 7.57882 9.68701 7.72585 9.71523 7.8677C9.74344 8.00955 9.81309 8.13984 9.91536 8.24211C10.0176 8.34438 10.1479 8.41402 10.2898 8.44224C10.4316 8.47045 10.5786 8.45597 10.7123 8.40062C10.8459 8.34528 10.9601 8.25155 11.0404 8.1313C11.1208 8.01104 11.1637 7.86966 11.1637 7.72504C11.1637 7.5311 11.0866 7.3451 10.9495 7.20797C10.8124 7.07083 10.6264 6.99379 10.4324 6.99379ZM7.50743 0.412537C6.54714 0.412537 5.59625 0.60168 4.70905 0.969168C3.82186 1.33666 3.01574 1.87529 2.33671 2.55432C0.965349 3.92568 0.194928 5.78564 0.194928 7.72504C0.188535 9.41359 0.773195 11.0512 1.84755 12.3538L0.385053 13.8163C0.283586 13.9192 0.214851 14.0498 0.187522 14.1916C0.160192 14.3335 0.175491 14.4802 0.23149 14.6134C0.292226 14.745 0.390686 14.8555 0.514372 14.9311C0.638057 15.0066 0.781391 15.0436 0.926178 15.0375H7.50743C9.44682 15.0375 11.3068 14.2671 12.6781 12.8958C14.0495 11.5244 14.8199 9.66443 14.8199 7.72504C14.8199 5.78564 14.0495 3.92568 12.6781 2.55432C11.3068 1.18296 9.44682 0.412537 7.50743 0.412537ZM7.50743 13.575H2.68849L3.36855 12.895C3.43765 12.8273 3.49262 12.7465 3.53027 12.6574C3.56793 12.5682 3.58753 12.4725 3.58793 12.3758C3.58518 12.1829 3.50633 11.9989 3.36855 11.8639C2.41104 10.9075 1.81477 9.64862 1.68133 8.30184C1.54789 6.95507 1.88554 5.60368 2.63674 4.47794C3.38794 3.35219 4.50622 2.52172 5.80107 2.12803C7.09591 1.73434 8.4872 1.80177 9.7379 2.31884C10.9886 2.83592 12.0213 3.77064 12.6601 4.96376C13.2989 6.15688 13.5043 7.53458 13.2413 8.86214C12.9782 10.1897 12.263 11.385 11.2175 12.2443C10.1719 13.1037 8.8608 13.574 7.50743 13.575Z" fill="#A4B4CB"/>
</svg>
