<svg width="16" height="16" viewBox="0 0 16 16" fill="none" xmlns="http://www.w3.org/2000/svg">
<path fill-rule="evenodd" clip-rule="evenodd" d="M7.86963 15.3118C11.9082 15.3118 15.1821 12.0378 15.1821 7.99927C15.1821 3.96069 11.9082 0.686768 7.86963 0.686768C3.83105 0.686768 0.557129 3.96069 0.557129 7.99927C0.557129 12.0378 3.83105 15.3118 7.86963 15.3118ZM8.60088 4.34302C8.60088 3.93916 8.27349 3.61177 7.86963 3.61177C7.46577 3.61177 7.13838 3.93916 7.13838 4.34302V7.99927C7.13838 8.19321 7.21542 8.3792 7.35256 8.51634L9.18068 10.3445C9.46625 10.63 9.92925 10.63 10.2148 10.3445C10.5004 10.0589 10.5004 9.59589 10.2148 9.31032L8.60088 7.69637V4.34302Z" fill="#FFB648"/>
</svg>
