<svg width="19" height="12" viewBox="0 0 19 12" fill="none" xmlns="http://www.w3.org/2000/svg">
<path d="M0.850586 1.61191C0.850586 0.804198 1.50537 0.149414 2.31309 0.149414H3.77559C4.5833 0.149414 5.23809 0.804198 5.23809 1.61191V3.07441C5.23809 3.88213 4.5833 4.53691 3.77559 4.53691H2.31309C1.50537 4.53691 0.850586 3.88213 0.850586 3.07441V1.61191Z" fill="#7468E4"/>
<path d="M0.850586 8.92441C0.850586 8.1167 1.50537 7.46191 2.31309 7.46191H3.77559C4.5833 7.46191 5.23809 8.1167 5.23809 8.92441V10.3869C5.23809 11.1946 4.5833 11.8494 3.77559 11.8494H2.31309C1.50537 11.8494 0.850586 11.1946 0.850586 10.3869V8.92441Z" fill="#7468E4"/>
<path d="M15.4756 3.80566C14.6679 3.80566 14.0131 4.46045 14.0131 5.26816V6.73066C14.0131 7.53838 14.6679 8.19316 15.4756 8.19316H16.9381C17.7458 8.19316 18.4006 7.53838 18.4006 6.73066V5.26816C18.4006 4.46045 17.7458 3.80566 16.9381 3.80566H15.4756Z" fill="#7468E4"/>
<path d="M7.43193 1.61206C7.02808 1.61206 6.70068 1.93945 6.70068 2.34331C6.70068 2.74717 7.02808 3.07456 7.43193 3.07456H8.16318C8.56704 3.07456 8.89443 3.40195 8.89443 3.80581V8.19331C8.89443 8.59717 8.56704 8.92456 8.16318 8.92456H7.43193C7.02808 8.92456 6.70068 9.25195 6.70068 9.65581C6.70068 10.0597 7.02808 10.3871 7.43193 10.3871H8.16318C9.37476 10.3871 10.3569 9.40489 10.3569 8.19331V6.73081H11.8194C12.2233 6.73081 12.5507 6.40342 12.5507 5.99956C12.5507 5.5957 12.2233 5.26831 11.8194 5.26831H10.3569V3.80581C10.3569 2.59424 9.37476 1.61206 8.16318 1.61206H7.43193Z" fill="#7468E4"/>
</svg>
