<svg width="15" height="15" viewBox="0 0 15 15" fill="none" xmlns="http://www.w3.org/2000/svg">
<path d="M6.20088 13.2436C6.20088 14.0513 5.5461 14.7061 4.73838 14.7061C3.93066 14.7061 3.27588 14.0513 3.27588 13.2436C3.27588 12.4359 3.93066 11.7811 4.73838 11.7811C5.5461 11.7811 6.20088 12.4359 6.20088 13.2436Z" fill="#22B573"/>
<path d="M14.7349 2.46428C15.0344 2.73523 15.0575 3.19765 14.7866 3.49713L13.0552 5.41075C12.9245 5.55523 12.93 5.77682 13.0678 5.91459L14.0302 6.87695C14.3157 7.16252 14.3157 7.62552 14.0302 7.91109C13.7446 8.19666 13.2816 8.19666 12.996 7.91109L12.1112 7.0263C11.9634 6.87844 11.7218 6.88447 11.5816 7.03953L7.83971 11.1753C7.56876 11.4747 7.10634 11.4979 6.80686 11.2269C6.50739 10.9559 6.48426 10.4935 6.75522 10.194L13.7021 2.51592C13.973 2.21644 14.4355 2.19332 14.7349 2.46428Z" fill="#22B573"/>
<path d="M0.564764 9.0707C0.850335 8.78512 1.31334 8.78512 1.59891 9.0707L2.69578 10.1676C2.98135 10.4531 2.98135 10.9161 2.69578 11.2017C2.41021 11.4873 1.94721 11.4873 1.66164 11.2017L0.564764 10.1048C0.279193 9.81927 0.279193 9.35627 0.564764 9.0707Z" fill="#22B573"/>
<path d="M1.3849 6.96525L3.70411 9.28446C4.27525 9.8556 5.20126 9.8556 5.7724 9.28446L9.55411 5.50275C10.1253 4.9316 10.1253 4.0056 9.55411 3.43446L7.2349 1.11525C6.66376 0.544105 5.73775 0.544104 5.16661 1.11525L1.3849 4.89696C0.813757 5.4681 0.813758 6.3941 1.3849 6.96525Z" fill="#22B573"/>
</svg>
