<svg width="17" height="14" viewBox="0 0 17 14" fill="none" xmlns="http://www.w3.org/2000/svg">
<path d="M13.3368 0.343506H1.63682C0.8291 0.343506 0.174316 0.99829 0.174316 1.80601V10.581C0.174316 11.3887 0.8291 12.0435 1.63682 12.0435H7.85244C8.05437 12.0435 8.21807 11.8798 8.21807 11.6779V8.38726C8.21807 7.57954 8.87285 6.92476 9.68057 6.92476H14.4337C14.6356 6.92476 14.7993 6.76106 14.7993 6.55913V1.80601C14.7993 0.99829 14.1445 0.343506 13.3368 0.343506Z" fill="#51D5EC"/>
<path d="M9.68115 9.1187C9.68115 8.71484 10.0085 8.38745 10.4124 8.38745H15.5312C15.935 8.38745 16.2624 8.71484 16.2624 9.1187V12.775C16.2624 13.1788 15.935 13.5062 15.5312 13.5062H10.4124C10.0085 13.5062 9.68115 13.1788 9.68115 12.775V9.1187Z" fill="#51D5EC"/>
</svg>
