<svg width="38" height="13" viewBox="0 0 38 13" fill="none" xmlns="http://www.w3.org/2000/svg">
<path d="M16.7368 12.533H13.7544L15.6198 0.99884H18.602L16.7368 12.533Z" fill="white"/>
<path d="M27.5479 1.28079C26.9596 1.04741 26.0266 0.789734 24.8729 0.789734C21.9277 0.789734 19.8537 2.36026 19.841 4.60564C19.8166 6.26228 21.3259 7.18242 22.4548 7.73479C23.6087 8.29923 24.0009 8.66765 24.0009 9.17077C23.9891 9.94348 23.0685 10.2997 22.2099 10.2997C21.0192 10.2997 20.3812 10.116 19.4116 9.68613L19.0189 9.50184L18.6016 12.091C19.301 12.4097 20.5898 12.6925 21.9277 12.7049C25.057 12.7049 27.0943 11.1586 27.1185 8.76583C27.1304 7.45281 26.3334 6.44673 24.6151 5.62461C23.572 5.09686 22.9332 4.741 22.9332 4.20102C22.9454 3.71013 23.4735 3.20733 24.6509 3.20733C25.6205 3.18271 26.3329 3.41576 26.8725 3.64897L27.1423 3.77145L27.5479 1.28079Z" fill="white"/>
<path d="M31.5107 8.44686C31.7563 7.78423 32.7014 5.21969 32.7014 5.21969C32.689 5.24432 32.9465 4.54484 33.0938 4.11543L33.3022 5.10928C33.3022 5.10928 33.867 7.87018 33.9896 8.44686H31.5107ZM35.1921 0.99884H32.8852C32.1738 0.99884 31.6333 1.20727 31.3264 1.95583L26.8965 12.5328H30.0258C30.0258 12.5328 30.541 11.1093 30.6517 10.8026H34.4808C34.5665 11.2076 34.8367 12.5328 34.8367 12.5328H37.5981L35.1921 0.99884Z" fill="white"/>
<path d="M11.2626 0.99884L8.3419 8.86403L8.02274 7.26888C7.48276 5.42828 5.78927 3.42851 3.89941 2.43417L6.57469 12.5208H9.72847L14.4162 0.99884H11.2626Z" fill="white"/>
<path d="M5.62966 0.99884H0.831316L0.782227 1.23189C4.52523 2.18905 7.00416 4.49624 8.02263 7.26937L6.97953 1.96839C6.8078 1.23173 6.28005 1.02314 5.62966 0.99884Z" fill="white"/>
</svg>
