<svg width="15" height="12" viewBox="0 0 15 12" fill="none" xmlns="http://www.w3.org/2000/svg">
<path d="M3.83057 8.13708H6.02432C6.21826 8.13708 6.40425 8.06004 6.54139 7.92291C6.67852 7.78577 6.75557 7.59977 6.75557 7.40583C6.75557 7.2119 6.67852 7.0259 6.54139 6.88876C6.40425 6.75163 6.21826 6.67458 6.02432 6.67458H3.83057C3.63663 6.67458 3.45063 6.75163 3.31349 6.88876C3.17636 7.0259 3.09932 7.2119 3.09932 7.40583C3.09932 7.59977 3.17636 7.78577 3.31349 7.92291C3.45063 8.06004 3.63663 8.13708 3.83057 8.13708ZM12.6056 0.824585H2.36807C1.78625 0.824585 1.22826 1.05571 0.816851 1.46712C0.405443 1.87853 0.174316 2.43652 0.174316 3.01833V9.59958C0.174316 10.1814 0.405443 10.7394 0.816851 11.1508C1.22826 11.5622 1.78625 11.7933 2.36807 11.7933H12.6056C13.1874 11.7933 13.7454 11.5622 14.1568 11.1508C14.5682 10.7394 14.7993 10.1814 14.7993 9.59958V3.01833C14.7993 2.43652 14.5682 1.87853 14.1568 1.46712C13.7454 1.05571 13.1874 0.824585 12.6056 0.824585ZM13.3368 9.59958C13.3368 9.79352 13.2598 9.97952 13.1226 10.1167C12.9855 10.2538 12.7995 10.3308 12.6056 10.3308H2.36807C2.17413 10.3308 1.98813 10.2538 1.85099 10.1167C1.71386 9.97952 1.63682 9.79352 1.63682 9.59958V5.21208H13.3368V9.59958ZM13.3368 3.74958H1.63682V3.01833C1.63682 2.8244 1.71386 2.6384 1.85099 2.50126C1.98813 2.36413 2.17413 2.28708 2.36807 2.28708H12.6056C12.7995 2.28708 12.9855 2.36413 13.1226 2.50126C13.2598 2.6384 13.3368 2.8244 13.3368 3.01833V3.74958Z" fill="#A4B4CB"/>
</svg>
